<?xml version="1.0" encoding="utf-8"?>
<!-- Generator: Adobe Illustrator 26.0.3, SVG Export Plug-In . SVG Version: 6.00 Build 0)  -->
<svg version="1.0" id="katman_1" xmlns="http://www.w3.org/2000/svg" xmlns:xlink="http://www.w3.org/1999/xlink" x="0px" y="0px"
	 viewBox="0 0 600 450" style="enable-background:new 0 0 600 450;" xml:space="preserve">
<style type="text/css">
	.st0{fill:#E51E22;}
</style>
<g>
	<path class="st0" d="M227.1,233.8c0-10.3-4.7-18.5-14.2-18.5c-9.5,0-14.5,8.2-14.5,18.5c0,10.3,4.7,18.5,14.5,18.5
		C222.6,252,227.1,244.1,227.1,233.8 M187.8,233.8c0-15.6,9.8-27.2,25-27.2s25,11.6,25,27.2s-9.8,26.9-25,26.9
		S187.8,249.4,187.8,233.8 M246.9,207.7h10.8l17.4,29c1.6,2.9,3.7,7.4,3.7,7.4h0.3c0,0-0.3-5.3-0.3-9v-27.4H289v51.9h-10.3
		l-17.9-28.7c-1.6-2.6-3.7-7.1-3.7-7.1h-0.3c0,0,0.3,5.5,0.3,9v26.9h-10.3V207.7z M300.7,207.7h38.2v8.7h-27.7V228h24.3v8.7h-24.3
		v14h27.9v9h-38.5V207.7z M360.2,232.2h10.8c5.5,0,8.4-3.2,8.4-7.6c0-4.7-3.2-7.6-8.2-7.6h-11.1V232.2z M349.4,207.7h22.9
		c6.1,0,10.5,1.8,13.7,4.7c2.9,2.9,4.7,7.1,4.7,11.9c0,9.8-6.6,16.3-17.4,16.3h-12.7v18.7H350v-51.7H349.4z M398.2,207.7h10.5v43
		H433v9h-34.8V207.7z M438.8,242.8v-35.1h10.5V243c0,5.3,2.6,9.2,9.8,9.2c6.6,0,9.8-4,9.8-9.2v-35.3h10.5V243
		c0,11.1-6.9,17.7-20,17.7C445.7,260.4,438.8,254.1,438.8,242.8 M486.8,243.6h10.3c0.8,6.3,4.2,8.7,11.6,8.7c5.3,0,10-1.8,10-6.6
		c0-5-5-6.1-12.9-7.9c-9.2-2.1-17.9-4.5-17.9-15.3c0-10.3,8.4-15.6,19.8-15.6c11.6,0,19.2,5.8,20,16.1h-10c-0.5-5.3-4.7-7.9-10-7.9
		c-5.5,0-9.5,2.4-9.5,6.1c0,4.2,3.7,5.5,11.3,7.1c10.8,2.4,19.5,4.7,19.5,16.1c0,10.5-8.4,16.3-20.3,16.3
		C495,260.7,487.1,254.4,486.8,243.6 M71.3,189.2v88.6h88.6v-50.6h-9.8v40.9H81v-68.8h40.9v-10H71.3z M150.1,172.9v16.3h-16.6v10
		h16.6v16.3h9.8v-16.3h16.3v-10h-16.3v-16.3H150.1z"/>
	<path class="st0" d="M121.9,254.9v-43.2h-8.7c0,2.9-1.1,5.3-2.6,6.6c-1.6,1.3-4,1.8-6.9,1.8h-1.1v7.1h9.2v27.7
		C111.9,254.9,121.9,254.9,121.9,254.9z"/>
</g>
</svg>
